# xmcd CD database file
#
# Track frame offsets:
#	150
#	13572
#	26487
#	38887
#	52462
#	68767
#	80565
#	97715
#	110430
#	127042
#	139155
#	155165
#	169595
#	187485
#	201172
#	213167
#
# Disc length: 2996 seconds
#
# Revision: 3
# Processed by: cddbd v1.4PL0 Copyright (c) Steve Scherf et al.
# Submitted via: CDex 1.51
#
DISCID=e70bb210
DTITLE=Various Artist - Bella Musica - Great Country And Western Songs 2
DYEAR=1995
DGENRE=Country
TTITLE0=Ruby, Don't Take Your Love To Town
TTITLE1=By The Time I Get To Phoenix
TTITLE2=San Antonio Stroll
TTITLE3=The Last Waltz
TTITLE4=All My Sorrows
TTITLE5=A Bottle Of Whisky
TTITLE6=Blue Bayou
TTITLE7=Wasted Days Asted Nights
TTITLE8=Lucille
TTITLE9=Ring Of Fire
TTITLE10=She Was A Fan
TTITLE11=Wichita Lineman
TTITLE12=Trail To Tennessee
TTITLE13=Funny How Time Slips Away
TTITLE14=Lucky People
TTITLE15=The Most Beautiful Girl
EXTD=YEAR: 1995
EXTT0=
EXTT1=
EXTT2=
EXTT3=
EXTT4=
EXTT5=
EXTT6=
EXTT7=
EXTT8=
EXTT9=
EXTT10=
EXTT11=
EXTT12=
EXTT13=
EXTT14=
EXTT15=
PLAYORDER=
